<?xml version="1.0" encoding="UTF-8"?>
<svg version="1.1" xmlns="http://www.w3.org/2000/svg" width="1000" height="1000">
<path d="M0 0 C166.32 0 332.64 0 504 0 C504 208.89 504 417.78 504 633 C337.68 633 171.36 633 0 633 C0 424.11 0 215.22 0 0 Z M126 128 C125.835 167.125625 125.67 206.25125 125.5 246.5625 C125.44779297 258.61467041 125.39558594 270.66684082 125.34179688 283.08422852 C125.29488585 294.52629714 125.29488585 294.52629714 125.24865723 305.96836853 C125.22907751 310.81029377 125.20817617 315.65221062 125.18615723 320.49412537 C124.9067171 382.99638935 125 445.49625536 125 508 C208.82 508 292.64 508 379 508 C379 466.09 379 424.18 379 381 C326.86 381 274.72 381 221 381 C221 339.75 221 298.5 221 256 C273.14 256 325.28 256 379 256 C379 213.76 379 171.52 379 128 C295.51 128 212.02 128 126 128 Z " fill="#000000" transform="translate(247,200)"/>
</svg>
